<?xml version="1.0" standalone="no"?><!DOCTYPE svg PUBLIC "-//W3C//DTD SVG 1.1//EN" "http://www.w3.org/Graphics/SVG/1.1/DTD/svg11.dtd"><svg t="1513667549091" class="icon" style="" viewBox="0 0 1024 1024" version="1.1" xmlns="http://www.w3.org/2000/svg" p-id="1978" xmlns:xlink="http://www.w3.org/1999/xlink" width="200" height="200"><defs><style type="text/css"></style></defs><path d="M944.954201 202.013947l-92.518137 92.237751L729.103108 171.259502l92.492554-92.237751c17.042141-16.98586 44.636616-16.98586 61.679781 0l61.677734 61.482283C961.96769 157.489894 961.96769 185.028087 944.954201 202.013947zM297.175795 601.720418l123.329886 123.020848-164.413584 40.940434L297.175795 601.720418zM821.595662 325.006142 451.572234 694.01445l-123.331933-123.021871L698.262706 202.013947 821.595662 325.006142zM153.895531 198.937888l0 671.226444L825.658188 870.164333l0-484.269425 87.639013-87.525426 0 615.58417c0 24.15412-19.638269 43.763736-43.818995 43.763736L110.104165 957.717388c-24.208355 0-43.818995-19.609617-43.818995-43.763736L66.285171 155.176199c0-24.180725 19.61064-43.762713 43.818995-43.762713l618.548688 0-87.637989 87.525426L153.895531 198.938911z" p-id="1979"></path></svg>