<?xml version="1.0" standalone="no"?><!DOCTYPE svg PUBLIC "-//W3C//DTD SVG 1.1//EN" "http://www.w3.org/Graphics/SVG/1.1/DTD/svg11.dtd"><svg t="1513667584365" class="icon" style="" viewBox="0 0 1024 1024" version="1.1" xmlns="http://www.w3.org/2000/svg" p-id="2087" xmlns:xlink="http://www.w3.org/1999/xlink" width="200" height="200"><defs><style type="text/css"></style></defs><path d="M922.992003 214.894302l-88.508823 88.324628L716.435601 185.452759l88.508823-88.325651c16.295128-16.246009 42.730197-16.246009 59.024302 0l59.023278 58.883085C939.287131 172.281785 939.287131 198.646246 922.992003 214.894302zM303.00864 597.586261l118.090559 117.765147-157.345608 39.20593L303.00864 597.586261zM804.944424 332.659449 450.819081 685.908842 332.775594 568.166207l354.129436-353.271906L804.944424 332.659449zM176.865685 227.346915l0 616.231923 616.228853 0L793.094538 464.358957l94.805226-94.805226 0 521.42772c0 23.14514-24.257473 47.402613-47.40159 47.402613L129.464095 938.384064c-23.146163 0-47.402613-24.257473-47.402613-47.402613L82.061482 179.945325c0-23.146163 24.25645-47.402613 47.402613-47.402613l521.422603 0-94.802156 94.805226L176.865685 227.347938z" p-id="2088"></path></svg>